<!-- <svg xmlns="http://www.w3.org/2000/svg" width="31" height="60" viewBox="0 0 31 60">
  <path id="Arrow_right_Copy" data-name="Arrow right Copy" d="M1.236.007A.9.9,0,0,1,1.741.28L30.665,29.119a1.411,1.411,0,0,1,0,1.825L1.741,59.783A1.135,1.135,0,0,1,.4,57.958L28.406,30.032.4,2.1A1.627,1.627,0,0,1,.1.761,1.053,1.053,0,0,1,1.236.007Z" fill="#ffcc01"/>
</svg> -->

<svg width="30" height="30" viewBox="0 0 30 30" fill="none" xmlns="http://www.w3.org/2000/svg">
<g clip-path="url(#clip0)">
<path d="M15 0.000366211C6.72796 0.000366211 0 6.72912 0 15.0004C0 23.2707 6.72796 29.9997 15 29.9997C23.2704 29.9997 30 23.2707 30 15.0004C30 6.72912 23.2703 0.000366211 15 0.000366211ZM19.9655 15.7769L11.5861 24.1547C11.3718 24.369 11.092 24.4764 10.8101 24.4764C10.5301 24.4764 10.2492 24.369 10.0346 24.1547C9.60572 23.7261 9.60572 23.0313 10.0346 22.6027L17.6375 14.9998L10.0341 7.39663C9.60519 6.9688 9.60519 6.27433 10.0341 5.8457C10.4627 5.41653 11.1572 5.41653 11.5856 5.8457L19.9644 14.2237C20.394 14.6527 20.394 15.3472 19.9655 15.7769Z" fill="#F2F2F2"/>
</g>
<defs>
<clipPath id="clip0">
<rect width="30" height="29.9999" fill="white"/>
</clipPath>
</defs>
</svg>
