<svg width="30" height="30" viewBox="0 0 30 30" fill="none" xmlns="http://www.w3.org/2000/svg">
<g clip-path="url(#clip0)">
<path d="M15 0.000366211C23.272 0.000366211 30 6.72912 30 15.0004C30 23.2707 23.272 29.9997 15 29.9997C6.72956 29.9997 1.90735e-06 23.2707 1.90735e-06 15.0004C1.90735e-06 6.72912 6.72965 0.000366211 15 0.000366211ZM10.0345 15.7769L18.4139 24.1547C18.6282 24.369 18.908 24.4764 19.1899 24.4764C19.4699 24.4764 19.7508 24.369 19.9654 24.1547C20.3943 23.7261 20.3943 23.0313 19.9654 22.6027L12.3625 14.9998L19.9659 7.39663C20.3948 6.9688 20.3948 6.27433 19.9659 5.8457C19.5373 5.41653 18.8428 5.41653 18.4144 5.8457L10.0356 14.2237C9.60599 14.6527 9.60599 15.3472 10.0345 15.7769Z" fill="#2B3093"/>
</g>
<defs>
<clipPath id="clip0">
<rect width="30" height="29.9999" fill="white" transform="matrix(-1 0 0 1 30 0)"/>
</clipPath>
</defs>
</svg>
