<?xml version="1.0" encoding="UTF-8"?>
<svg width="91px" height="79px" viewBox="0 0 91 79" version="1.1" xmlns="http://www.w3.org/2000/svg" xmlns:xlink="http://www.w3.org/1999/xlink">
    <title>Digitial icon</title>
    <g id="Page-1" stroke="none" stroke-width="1" fill="none" fill-rule="evenodd" stroke-linecap="round" stroke-linejoin="round">
        <g id="Solutions-Page_For-Corporates" transform="translate(-1016.000000, -1167.000000)" stroke="#02BAFF">
            <g id="Digitial-icon" transform="translate(1017.000000, 1168.000000)">
                <path d="M23.03,24 C19.40625,24 16.53,21.987061 16.53,19.5083179 C16.53,17.0295749 19.47125,15 23.03,15 C26.58875,15 29.53,17.012939 29.53,19.5083179" id="Path" stroke-width="1.65"></path>
                <path d="M23.03,23 C26.65375,23 29.53,25.0258303 29.53,27.5 C29.53,29.9741697 26.605,32 23.03,32 C19.455,32 16.53,29.9907749 16.53,27.5" id="Path" stroke-width="1.65"></path>
                <line x1="23.53" y1="11" x2="23.53" y2="36" id="Path" stroke-width="1.65"></line>
                <path d="M44.03,24 C40.40625,24 37.53,21.987061 37.53,19.5083179 C37.53,17.0295749 40.47125,15 44.03,15 C47.58875,15 50.53,17.012939 50.53,19.5083179" id="Path" stroke-width="1.65"></path>
                <path d="M44.03,23 C47.65375,23 50.53,25.0258303 50.53,27.5 C50.53,29.9741697 47.605,32 44.03,32 C40.455,32 37.53,29.9907749 37.53,27.5" id="Path" stroke-width="1.65"></path>
                <line x1="44.53" y1="11" x2="44.53" y2="36" id="Path" stroke-width="1.65"></line>
                <path d="M66.03,24 C62.40625,24 59.53,21.987061 59.53,19.5083179 C59.53,17.0295749 62.47125,15 66.03,15 C69.58875,15 72.53,17.012939 72.53,19.5083179" id="Path" stroke-width="1.65"></path>
                <path d="M66.03,23 C69.6375,23 72.53,25.0258303 72.53,27.5 C72.53,29.9741697 69.58875,32 66.03,32 C62.47125,32 59.53,29.9907749 59.53,27.5" id="Path" stroke-width="1.65"></path>
                <line x1="65.53" y1="11" x2="65.53" y2="36" id="Path" stroke-width="1.65"></line>
                <rect id="Rectangle" stroke-width="1.77" x="0.53" y="0" width="88" height="63" rx="3.37"></rect>
                <polygon id="Path" stroke-width="1.65" points="55.53 76 32.53 76 34.9891195 63 53.0869532 63"></polygon>
                <line x1="29.53" y1="76" x2="59.53" y2="76" id="Path" stroke-width="1.65"></line>
                <line x1="0.53" y1="47" x2="88.53" y2="47" id="Path" stroke-width="1.65"></line>
                <circle id="Oval" stroke-width="1.77" fill="#02BAFF" fill-rule="nonzero" cx="44.53" cy="55" r="1"></circle>
            </g>
        </g>
    </g>
</svg>