<svg xmlns="http://www.w3.org/2000/svg" width="39" height="46" viewBox="0 0 39 46"><path d="M35.773,8.615c-.006-.005-.008-.011-.013-.014-.06-.063-.12-.123-.184-.182s-.128-.122-.192-.182-.113-.106-.171-.156l-.2-.175c-.125-.1-.254-.2-.38-.3-.088-.066-.175-.131-.265-.195a11.038,11.038,0,0,0-4.277-1.862L27.3,4.98,2.765,0a10.882,10.882,0,0,0,.988,15.459A10.989,10.989,0,0,0,8.82,17.942l11.2,2.271L15.148,30.388A10.951,10.951,0,0,0,25.982,45.965L36.68,23.6l1.245-2.6A10.794,10.794,0,0,0,35.773,8.615" fill="#00b6ff"/></svg>