<svg width="221" height="274" viewBox="0 0 221 274" fill="none" xmlns="http://www.w3.org/2000/svg">
<path d="M126.393 9.67766C132.251 3.8198 141.749 3.8198 147.607 9.67767L264.322 126.393C270.18 132.251 270.18 141.749 264.322 147.607L147.607 264.322C141.749 270.18 132.251 270.18 126.393 264.322L9.67766 147.607C3.8198 141.749 3.8198 132.251 9.67767 126.393L126.393 9.67766Z" stroke="#5559A9" stroke-width="10"/>
<path d="M224.393 9.67766C230.251 3.8198 239.749 3.8198 245.607 9.67767L362.322 126.393C368.18 132.251 368.18 141.749 362.322 147.607L245.607 264.322C239.749 270.18 230.251 270.18 224.393 264.322L107.678 147.607C101.82 141.749 101.82 132.251 107.678 126.393L224.393 9.67766Z" stroke="#5559A9" stroke-width="10"/>
</svg>
