<?xml version="1.0" encoding="utf-8"?>
<!-- Generator: Adobe Illustrator 25.0.0, SVG Export Plug-In . SVG Version: 6.00 Build 0)  -->
<svg version="1.1" id="Layer_1" xmlns="http://www.w3.org/2000/svg" xmlns:xlink="http://www.w3.org/1999/xlink" x="0px" y="0px"
	 viewBox="0 0 158.7 158.7" style="enable-background:new 0 0 158.7 158.7;" xml:space="preserve">
<style type="text/css">
	.st0{fill:none;stroke:#222222;stroke-width:3;stroke-linecap:round;stroke-linejoin:round;stroke-miterlimit:10;}
</style>
<g id="_x38_">
	<path class="st0" d="M94.9,140c0,8.6-7,15.5-15.5,15.5s-15.5-7-15.5-15.5"/>
	<path class="st0" d="M134,119.9c-2.4-4.7-3.7-9.8-3.7-15.1V62.7c0-25.1-18.1-46-42-50.2V7.1c0-3.9-3.2-7.1-7.1-7.1h-3.7
		c-3.9,0-7.1,3.2-7.1,7.1v5.4c-23.9,4.2-42,25.1-42,50.2v42.1c0,5.3-1.3,10.4-3.7,15.1l-10.3,19.9h129.9L134,119.9z"/>
	<path class="st0" d="M45.4,82.4v-16c0-15.8,10-29.3,24.1-34.5"/>
</g>
</svg>
