<?xml version="1.0" encoding="UTF-8"?>
<svg width="84px" height="80px" viewBox="0 0 84 80" version="1.1" xmlns="http://www.w3.org/2000/svg" xmlns:xlink="http://www.w3.org/1999/xlink">
    <title>Payment icon</title>
    <g id="Page-1" stroke="none" stroke-width="1" fill="none" fill-rule="evenodd" stroke-linecap="round" stroke-linejoin="round">
        <g id="Solutions-Page_For-Corporates" transform="translate(-337.000000, -1166.000000)" stroke="#02BAFF" stroke-width="1.65">
            <g id="Payment-icon" transform="translate(338.000000, 1166.000000)">
                <polyline id="Path" points="48 68.3213331 17.0899329 68.3213331 17.0899329 74.9038462 0 60.8957396 17.0899329 46.9038462 17.0899329 53.4863592 48 53.4863592"></polyline>
                <circle id="Oval" cx="64" cy="60.9038462" r="18"></circle>
                <polyline id="Path" points="34 26.3213331 64.9100671 26.3213331 64.9100671 32.9038462 82 18.9119527 64.9100671 4.90384615 64.9100671 11.4863592 34 11.4863592"></polyline>
                <circle id="Oval" cx="18" cy="18.9038462" r="18"></circle>
                <line x1="55" y1="62.9038462" x2="66" y2="62.9038462" id="Path"></line>
                <line x1="55" y1="58.9038462" x2="66" y2="58.9038462" id="Path"></line>
                <path d="M71,66.6034448 C68.6172433,69.0621278 64.8630876,69.61446 61.8644096,67.9475234 C58.8657315,66.2805868 57.3782726,62.814491 58.2447368,59.5129153 C59.1112009,56.2113397 62.1132175,53.9063635 65.5500263,53.9038462 C67.2551296,53.9054603 68.9102037,54.4759541 70.2494048,55.5236929" id="Path"></path>
                <path d="M18,18.9038462 C15.2360248,18.9038462 13,17.2834758 13,15.4038462 C13,13.5242165 15.173913,11.9038462 18,11.9038462 C20.826087,11.9038462 23,13.5242165 23,15.4038462" id="Path"></path>
                <path d="M18,18.9038462 C20.7639752,18.9038462 23,20.5242165 23,22.4038462 C23,24.2834758 20.7018634,25.9038462 18,25.9038462 C15.2981366,25.9038462 13,24.2834758 13,22.4038462" id="Path"></path>
                <line x1="18" y1="8.90384615" x2="18" y2="28.9038462" id="Path"></line>
            </g>
        </g>
    </g>
</svg>