<svg width="350" height="80" viewBox="0 0 350 80" fill="none" xmlns="http://www.w3.org/2000/svg">
<g clip-path="url(#clip0)">
<path d="M5.38392 22.3813C7.45046 24.1947 9.9568 25.4341 12.6524 25.9753L28.7068 29.2643L36.1278 13.6003L38.8639 7.84099L39.1641 7.21765L3.96663 0C-2.13228 6.93386 -0.819977 16.9123 5.38392 22.3813Z" fill="#FFCC00"/>
<path d="M28.7065 29.2643L36.2047 30.7997L51.8424 34.0033L52.6133 34.1674L54.3997 30.3945C57.4574 23.9232 55.7301 16.9303 51.3125 12.4734C51.306 12.4667 51.3 12.4596 51.2945 12.4521C51.2076 12.3602 51.1222 12.2749 51.0304 12.188C50.9385 12.1011 50.8467 12.0108 50.7548 11.9255C50.6629 11.8402 50.5908 11.7714 50.5104 11.6992L50.2151 11.4449C50.0363 11.2973 49.8526 11.1513 49.6705 11.0069C49.5458 10.9118 49.4195 10.8167 49.2916 10.7248C47.4628 9.39701 45.37 8.47787 43.155 8.02966L39.1574 7.20947L38.8572 7.84102L36.1342 13.6004L28.7065 29.2643Z" fill="#0088B2"/>
<path d="M37.2727 66.5467L52.6201 34.1592L51.8491 33.9951L36.2114 30.7915L28.7067 29.2643L21.7253 43.9948C16.5335 54.9837 25.152 67.4866 37.2727 66.5467Z" fill="#00BAFF"/>
<path d="M71.9995 26.925H96.8905V31.3541H77.0978V43.5502H94.6727V47.9792H77.0978V66.0086H71.9995V26.925Z" fill="white"/>
<path d="M102.82 38.0141H107.31V41.7869H107.802C109.077 39.2361 112.182 37.4629 115.286 37.4629C116.562 37.4629 117.892 37.7385 118.73 38.183V42.448C117.408 41.9159 115.998 41.6339 114.572 41.6163C110.359 41.6163 107.422 45.3892 107.422 50.9304V66.0087H102.82V38.0141Z" fill="white"/>
<path d="M122.056 51.9835C122.056 43.1697 128.264 36.9052 137.08 36.9052C145.838 36.9052 152.102 43.1697 152.102 51.9835C152.102 60.853 145.838 67.1176 137.08 67.1176C128.264 67.1176 122.056 60.8579 122.056 51.9835ZM147.501 51.9835C147.501 45.6631 143.121 41.0619 137.08 41.0619C130.981 41.0619 126.657 45.6631 126.657 51.9835C126.657 58.358 130.981 62.9592 137.08 62.9592C143.121 62.9592 147.501 58.358 147.501 51.9835Z" fill="white"/>
<path d="M159.141 38.0139H163.742V41.8393H164.297C166.291 38.7341 169.396 36.9608 173.11 36.9608C180.207 36.9608 184.757 42.1706 184.757 49.2636V66.0086H180.164V49.2669C180.164 44.5557 177.338 41.1175 172.515 41.1175C167.802 41.1175 163.755 44.7772 163.755 49.6475V66.0086H159.141V38.0139Z" fill="white"/>
<path d="M195.118 58.8025V41.6656H190.572V38.0075H195.118L196.171 28.9707H199.78L199.724 38.0075H206.93V41.6656H199.724V58.6352C199.724 61.2975 201.387 63.1807 204.048 63.1807C205.176 63.141 206.293 62.9552 207.373 62.6279V66.3417C205.901 66.8009 204.37 67.0435 202.827 67.0618C198.111 67.0618 195.118 63.7351 195.118 58.8025Z" fill="white"/>
<path d="M211.969 51.5947C211.969 42.7252 218.455 36.7378 227.602 36.7378C236.637 36.7378 242.846 42.7809 242.846 51.7062C242.846 52.4263 242.846 53.591 242.736 54.2012H220.45C221.116 58.1922 223.942 60.7972 227.996 60.7972C231.157 60.7972 233.596 59.2454 234.815 56.9177L241.791 58.6909C240.018 63.7908 234.529 66.8928 227.656 66.8928C218.455 66.8961 211.969 60.743 211.969 51.5947ZM234.475 49.1013C233.983 45.4925 231.206 42.8367 227.381 42.8367C223.665 42.8367 221.06 45.3301 220.396 49.1013H234.475Z" fill="white"/>
<path d="M246.837 51.8178C246.837 42.8367 252.492 36.7378 260.196 36.7378C264.133 36.7378 267.237 38.3454 269.233 41.1668H269.788V24.8746H277.99V66.0086H269.788V62.3998H269.233C267.237 65.282 264.243 66.8912 260.252 66.8912C252.436 66.8961 246.837 60.8579 246.837 51.8178ZM270.065 51.8178C270.065 47.2707 266.96 43.7799 262.581 43.7799C258.203 43.7799 255.036 47.2723 255.036 51.8178C255.036 56.419 258.253 59.9114 262.581 59.9114C266.96 59.9114 270.065 56.3633 270.065 51.8178Z" fill="white"/>
<path d="M283.312 69.6666L291.239 68.1148C292.293 71.22 294.898 73.1048 298.446 73.1048C302.992 73.1048 305.93 70.1111 305.93 65.4541V62.2948H305.375C303.103 64.8997 300.22 66.3957 296.394 66.3957C288.52 66.3957 282.979 60.574 282.979 51.8161C282.979 42.6693 288.468 36.7919 296.338 36.7919C300.439 36.7919 303.381 38.4552 305.597 41.2209H306.151V37.6121H314.132V65.6625C314.132 74.4221 308.144 79.6319 298.665 79.6319C290.407 79.645 284.698 76.0427 283.312 69.6666ZM306.207 51.8177C306.207 47.1607 303.103 43.7799 298.724 43.7799C294.344 43.7799 291.178 47.1623 291.178 51.8177C291.178 56.3632 294.337 59.6915 298.724 59.6915C303.11 59.6915 306.207 56.3632 306.207 51.8177V51.8177Z" fill="white"/>
<path d="M319.122 51.5947C319.122 42.7252 325.608 36.7378 334.755 36.7378C343.791 36.7378 350 42.7809 350 51.7062C350 52.4263 350 53.591 349.889 54.2012H327.604C328.26 58.1922 331.097 60.7972 335.15 60.7972C338.309 60.7972 340.749 59.2454 341.969 56.9177L348.954 58.6909C347.179 63.7908 341.692 66.8928 334.817 66.8928C325.614 66.8961 319.122 60.743 319.122 51.5947ZM341.629 49.1013C341.137 45.4925 338.359 42.8367 334.533 42.8367C330.819 42.8367 328.214 45.3301 327.548 49.1013H341.629Z" fill="white"/>
</g>
<defs>
<clipPath id="clip0">
<rect width="350" height="79.6451" fill="white"/>
</clipPath>
</defs>
</svg>
